<svg width="14" height="14" viewBox="0 0 14 14" fill="none" xmlns="http://www.w3.org/2000/svg">
<g clip-path="url(#clip0_1_128)">
<path d="M6.69363 1.1156C8.20919 1.1156 8.39828 1.12118 8.9929 1.14907C9.58696 1.17696 9.99137 1.27011 10.3472 1.40845C10.7154 1.55013 11.0255 1.74201 11.3357 2.05159C11.6193 2.33044 11.8388 2.66774 11.9788 3.04002C12.1166 3.39534 12.2103 3.80031 12.2382 4.39437C12.2644 4.98899 12.2717 5.17808 12.2717 6.69363C12.2717 8.20919 12.2661 8.39828 12.2382 8.9929C12.2103 9.58696 12.1166 9.99137 11.9788 10.3472C11.8392 10.7197 11.6197 11.0571 11.3357 11.3357C11.0568 11.6192 10.7195 11.8387 10.3472 11.9788C9.99193 12.1166 9.58696 12.2103 8.9929 12.2382C8.39828 12.2644 8.20919 12.2717 6.69363 12.2717C5.17808 12.2717 4.98899 12.2661 4.39437 12.2382C3.80031 12.2103 3.3959 12.1166 3.04002 11.9788C2.66759 11.8391 2.33023 11.6196 2.05159 11.3357C1.7679 11.0569 1.54842 10.7196 1.40845 10.3472C1.27011 9.99193 1.17696 9.58696 1.14907 8.9929C1.12285 8.39828 1.1156 8.20919 1.1156 6.69363C1.1156 5.17808 1.12118 4.98899 1.14907 4.39437C1.17696 3.79975 1.27011 3.3959 1.40845 3.04002C1.54803 2.66751 1.76756 2.33012 2.05159 2.05159C2.33031 1.7678 2.66765 1.54831 3.04002 1.40845C3.3959 1.27011 3.79975 1.17696 4.39437 1.14907C4.98899 1.12285 5.17808 1.1156 6.69363 1.1156ZM6.69363 3.90462C5.95394 3.90462 5.24454 4.19846 4.7215 4.7215C4.19846 5.24454 3.90462 5.95394 3.90462 6.69363C3.90462 7.43333 4.19846 8.14273 4.7215 8.66577C5.24454 9.18881 5.95394 9.48265 6.69363 9.48265C7.43333 9.48265 8.14273 9.18881 8.66577 8.66577C9.18881 8.14273 9.48265 7.43333 9.48265 6.69363C9.48265 5.95394 9.18881 5.24454 8.66577 4.7215C8.14273 4.19846 7.43333 3.90462 6.69363 3.90462ZM10.3194 3.76517C10.3194 3.58024 10.2459 3.40289 10.1151 3.27213C9.98438 3.14137 9.80703 3.06791 9.6221 3.06791C9.43718 3.06791 9.25983 3.14137 9.12907 3.27213C8.99831 3.40289 8.92485 3.58024 8.92485 3.76517C8.92485 3.95009 8.99831 4.12744 9.12907 4.2582C9.25983 4.38896 9.43718 4.46242 9.6221 4.46242C9.80703 4.46242 9.98438 4.38896 10.1151 4.2582C10.2459 4.12744 10.3194 3.95009 10.3194 3.76517ZM6.69363 5.02022C7.13745 5.02022 7.56309 5.19653 7.87691 5.51035C8.19074 5.82418 8.36705 6.24982 8.36705 6.69363C8.36705 7.13745 8.19074 7.56309 7.87691 7.87691C7.56309 8.19074 7.13745 8.36705 6.69363 8.36705C6.24982 8.36705 5.82418 8.19074 5.51035 7.87691C5.19653 7.56309 5.02022 7.13745 5.02022 6.69363C5.02022 6.24982 5.19653 5.82418 5.51035 5.51035C5.82418 5.19653 6.24982 5.02022 6.69363 5.02022Z" fill="white"/>
</g>
<defs>
<clipPath id="clip0_1_128">
<rect width="13.3873" height="13.3873" fill="white"/>
</clipPath>
</defs>
</svg>
