<svg width="14" height="14" viewBox="0 0 14 14" fill="none" xmlns="http://www.w3.org/2000/svg">
<g clip-path="url(#clip0_1_139)">
<path d="M3.87117 2.78902C3.87102 3.08489 3.75334 3.36859 3.54402 3.57771C3.3347 3.78682 3.05088 3.90421 2.755 3.90407C2.45913 3.90392 2.17543 3.78624 1.96631 3.57692C1.7572 3.3676 1.63981 3.08378 1.63995 2.7879C1.6401 2.49202 1.75778 2.20832 1.9671 1.99921C2.17642 1.7901 2.46024 1.6727 2.75612 1.67285C3.052 1.673 3.3357 1.79068 3.54481 2C3.75392 2.20932 3.87132 2.49314 3.87117 2.78902ZM3.90464 4.73017H1.67342V11.7139H3.90464V4.73017ZM7.42995 4.73017H5.2099V11.7139H7.40764V8.0491C7.40764 6.00754 10.0684 5.81789 10.0684 8.0491V11.7139H12.2717V7.29049C12.2717 3.84884 8.3336 3.97714 7.40764 5.66728L7.42995 4.73017Z" fill="white"/>
</g>
<defs>
<clipPath id="clip0_1_139">
<rect width="13.3873" height="13.3873" fill="white"/>
</clipPath>
</defs>
</svg>
