<svg width="14" height="14" viewBox="0 0 14 14" fill="none" xmlns="http://www.w3.org/2000/svg">
<g clip-path="url(#clip0_1_136)">
<path d="M12.362 3.15495C11.9362 3.34331 11.4846 3.46702 11.0222 3.52198C11.5096 3.23049 11.8744 2.77174 12.0486 2.23122C11.5912 2.50343 11.0897 2.6942 10.567 2.79739C10.216 2.42176 9.75061 2.17263 9.24334 2.08875C8.73607 2.00487 8.2153 2.09093 7.76199 2.33355C7.30868 2.57618 6.94822 2.96177 6.73666 3.43038C6.5251 3.899 6.47429 4.42438 6.59213 4.92486C5.66456 4.87837 4.75714 4.63732 3.92878 4.21737C3.10041 3.79743 2.36963 3.20796 1.78386 2.48725C1.57652 2.84338 1.46756 3.24823 1.46815 3.66032C1.46815 4.46913 1.87981 5.18368 2.50566 5.60203C2.13528 5.59037 1.77306 5.49035 1.44918 5.3103V5.3393C1.44929 5.87797 1.63569 6.40003 1.97678 6.81696C2.31786 7.23389 2.79264 7.52002 3.32061 7.62686C2.97679 7.72003 2.61628 7.73376 2.26636 7.66702C2.41522 8.13068 2.70536 8.53619 3.09615 8.82675C3.48694 9.11732 3.95881 9.2784 4.4457 9.28744C3.9618 9.66748 3.40773 9.94842 2.81518 10.1142C2.22262 10.28 1.60321 10.3273 0.99234 10.2536C2.05869 10.9393 3.30003 11.3034 4.56786 11.3022C8.85904 11.3022 11.2057 7.74734 11.2057 4.66436C11.2057 4.56396 11.2029 4.46244 11.1985 4.36315C11.6552 4.03302 12.0495 3.62407 12.3626 3.1555L12.362 3.15495Z" fill="white"/>
</g>
<defs>
<clipPath id="clip0_1_136">
<rect width="13.3873" height="13.3873" fill="white"/>
</clipPath>
</defs>
</svg>
