<svg width="14" height="14" viewBox="0 0 14 14" fill="none" xmlns="http://www.w3.org/2000/svg">
<path d="M12.0168 3.87606C12.2717 4.87006 12.2717 6.94509 12.2717 6.94509C12.2717 6.94509 12.2717 9.02012 12.0168 10.0141C11.8751 10.5636 11.4607 10.9959 10.9358 11.142C9.98251 11.4075 6.6937 11.4075 6.6937 11.4075C6.6937 11.4075 3.40656 11.4075 2.4516 11.142C1.92448 10.9936 1.51059 10.5619 1.37058 10.0141C1.11566 9.02012 1.11566 6.94509 1.11566 6.94509C1.11566 6.94509 1.11566 4.87006 1.37058 3.87606C1.51226 3.32662 1.92671 2.89432 2.4516 2.74818C3.40656 2.48267 6.6937 2.48267 6.6937 2.48267C6.6937 2.48267 9.98251 2.48267 10.9358 2.74818C11.4629 2.89656 11.8768 3.3283 12.0168 3.87606ZM5.57809 8.89741L8.92491 6.94509L5.57809 4.99278V8.89741Z" fill="white"/>
</svg>
